<?xml version="1.0" encoding="utf-8"?>
<!-- Generator: Adobe Illustrator 25.1.0, SVG Export Plug-In . SVG Version: 6.00 Build 0)  -->
<svg version="1.1" id="Layer_1" xmlns="http://www.w3.org/2000/svg" xmlns:xlink="http://www.w3.org/1999/xlink" x="0px" y="0px"
	 viewBox="0 0 128 128" style="enable-background:new 0 0 128 128;" xml:space="preserve">
<style type="text/css">
	.st0{fill:#FFFFFF;}
	.st1{fill:#F0514E;}
	.st2{fill:#F7AB1F;}
	.st3{fill:#F36B25;}
	.st4{fill:#A83A36;}
</style>
<g>
	<path class="st0" d="M124.6,63.3c0-8.2-10.7-15.2-27.2-19.3c0.9-3.1,1.6-6.1,2.1-9c2.2-12.4,0.3-20.9-5.3-24.1
		c-1.5-0.9-3.3-1.3-5.2-1.3c-6.9,0-15.9,5.7-25.1,15.2C54.8,15.2,45.8,9.5,38.9,9.5c-1.9,0-3.7,0.4-5.2,1.3
		c-7.1,4.1-7.8,16.9-3.1,33.2C14.1,48.1,3.4,55.1,3.4,63.3c0,8.2,10.7,15.2,27.2,19.3c-0.9,3.1-1.6,6.1-2.1,9
		c-2.2,12.4-0.3,20.9,5.2,24.1c1.5,0.9,3.3,1.3,5.2,1.3c6.9,0,15.9-5.7,25.1-15.2c9.1,9.5,18.2,15.2,25.1,15.2
		c1.9,0,3.7-0.4,5.2-1.3c5.6-3.2,7.4-11.8,5.3-24.1c-0.5-2.9-1.2-5.9-2.1-9C113.9,78.5,124.6,71.5,124.6,63.3z M89.1,12.3
		c1.4,0,2.7,0.3,3.8,0.9c4.4,2.5,5.8,10.3,3.9,21.2c-0.5,2.8-1.2,5.8-2.1,8.9c-5.4-1.2-11.3-2.1-17.7-2.6c-3.6-5.2-7.3-9.9-11-14
		C74.5,17.8,82.9,12.3,89.1,12.3z M81.5,73.4c-1.9,3.4-4,6.6-6.1,9.7c-3.7,0.3-7.5,0.4-11.4,0.4c-3.9,0-7.7-0.1-11.4-0.4
		c-2.1-3.1-4.1-6.3-6.1-9.7c-2-3.4-3.7-6.8-5.4-10.1c1.6-3.4,3.4-6.7,5.4-10.1c2-3.4,4-6.6,6.1-9.7c3.7-0.3,7.5-0.4,11.4-0.4
		c3.9,0,7.7,0.1,11.4,0.4c2.1,3.1,4.1,6.3,6.1,9.7c1.9,3.4,3.7,6.7,5.4,10.1C85.2,66.7,83.4,70,81.5,73.4z M88.4,66.6
		c2.2,4.7,4,9.4,5.4,13.9c-4.6,1-9.5,1.8-14.8,2.3c1.7-2.5,3.3-5.2,4.9-7.9C85.5,72.1,87,69.3,88.4,66.6z M73.3,86
		c-3.1,4.3-6.2,8.2-9.4,11.7c-3.1-3.5-6.3-7.4-9.4-11.7c3.1,0.2,6.2,0.3,9.4,0.3C67.2,86.3,70.3,86.2,73.3,86z M48.9,82.7
		c-5.2-0.5-10.2-1.3-14.8-2.3c1.4-4.5,3.3-9.2,5.4-13.9c1.4,2.7,2.8,5.5,4.4,8.3C45.6,77.6,47.3,80.2,48.9,82.7z M39.6,60
		c-2.2-4.8-4-9.5-5.4-13.9c4.6-1,9.5-1.8,14.7-2.3c-1.7,2.5-3.3,5.2-4.9,7.9C42.4,54.5,41,57.3,39.6,60z M54.6,40.5
		c3.1-4.3,6.2-8.2,9.4-11.7c3.1,3.5,6.3,7.4,9.4,11.7c-3.1-0.2-6.2-0.3-9.4-0.3C60.8,40.3,57.7,40.4,54.6,40.5z M83.9,51.8
		c-1.6-2.7-3.2-5.4-4.9-7.9c5.2,0.5,10.2,1.3,14.8,2.3c-1.4,4.5-3.3,9.2-5.4,13.9C87,57.3,85.5,54.5,83.9,51.8z M35.1,13.3
		c1.1-0.6,2.4-0.9,3.8-0.9c6.2,0,14.6,5.4,23.2,14.4c-3.7,4.1-7.5,8.8-11,14c-6.3,0.5-12.3,1.4-17.7,2.6
		C29,28.4,29.2,16.7,35.1,13.3z M6.2,63.3c0-6.8,10.1-12.9,25.2-16.5c1.7,5.3,3.9,10.8,6.6,16.6c-2.7,5.6-4.9,11.2-6.6,16.5
		C16.3,76.2,6.2,70.1,6.2,63.3z M38.9,114.3c-1.4,0-2.7-0.3-3.8-0.9c-4.4-2.5-5.8-10.3-3.9-21.2c0.5-2.8,1.2-5.8,2.1-8.9
		c5.4,1.2,11.3,2.1,17.7,2.6c3.6,5.2,7.3,9.9,11,14C53.5,108.8,45.1,114.3,38.9,114.3z M96.8,92.1c1.9,10.9,0.5,18.7-3.9,21.2
		c-1.1,0.6-2.4,0.9-3.8,0.9c-6.2,0-14.6-5.4-23.2-14.4c3.7-4.1,7.5-8.8,11-14c6.4-0.5,12.3-1.4,17.7-2.6
		C95.6,86.3,96.3,89.3,96.8,92.1z M96.6,79.8c-1.7-5.3-3.9-10.9-6.6-16.6c2.7-5.6,4.9-11.2,6.6-16.6c15.1,3.7,25.2,9.8,25.2,16.6
		C121.8,70.1,111.6,76.2,96.6,79.8z"/>
	<path class="st1" d="M61,109.4c0,4.2-3.4,7.7-7.7,7.7c-4.2,0-7.7-3.4-7.7-7.7c0-4.2,3.4-7.7,7.7-7.7C57.6,101.8,61,105.2,61,109.4z
		"/>
	<path class="st1" d="M36.9,28.3c0,4.2-3.4,7.7-7.7,7.7s-7.7-3.4-7.7-7.7s3.4-7.7,7.7-7.7S36.9,24.1,36.9,28.3z"/>
	<path class="st1" d="M119.2,50.4c0,4.2-3.4,7.7-7.7,7.7c-4.2,0-7.7-3.4-7.7-7.7c0-4.2,3.4-7.7,7.7-7.7
		C115.8,42.7,119.2,46.1,119.2,50.4z"/>
	<path class="st2" d="M76.8,63.3c0,7.1-5.7,12.8-12.8,12.8c-7.1,0-12.8-5.7-12.8-12.8S56.9,50.5,64,50.5
		C71.1,50.5,76.8,56.2,76.8,63.3z"/>
	<path class="st3" d="M76.8,63.3c0-7.1-5.7-12.8-12.8-12.8v25.6C71.1,76.1,76.8,70.4,76.8,63.3z"/>
	<path class="st4" d="M36.9,28.3c0-4.2-3.4-7.7-7.7-7.7V36C33.4,36,36.9,32.5,36.9,28.3z"/>
	<path class="st4" d="M61,109.4c0-4.2-3.4-7.7-7.7-7.7v15.3C57.6,117.1,61,113.7,61,109.4z"/>
	<path class="st4" d="M119.2,50.4c0-4.2-3.4-7.7-7.7-7.7V58C115.8,58,119.2,54.6,119.2,50.4z"/>
</g>
</svg>
